# xmcd CD database file
#
# Track frame offsets:
#	150
#	15170
#	30347
#	45947
#	60048
#	71698
#	91450
#	103435
#	116317
#	129361
#	148395
#	162713
#	178222
#	190583
#	205934
#	222964
#	233066
#	245965
#
# Disc length: 3462 seconds
#
# Revision: 1
# Processed by: cddbd v1.5.2PL0 Copyright (c) Steve Scherf et al.
# Submitted via: CDex 1.70beta2
#
DISCID=fb0d8412
DTITLE=(areca) - Country balady
DYEAR=1900
DGENRE=Country
TTITLE0=Dum U vychazejiciho slunce
TTITLE1=Sbohem lasko
TTITLE2=Niagara
TTITLE3=Vlak pulnocni
TTITLE4=Rosa na kolejich
TTITLE5=Dzinova laska
TTITLE6=1000 mil
TTITLE7=Oh,Ruby,nechtej mi lasku brat
TTITLE8=Zvednete kotvy
TTITLE9=Divka s vlasem medovym
TTITLE10=Cervena reka
TTITLE11=Cernej stin v patach mam
TTITLE12=Zelene plane
TTITLE13=Pane muj
TTITLE14=Ma pychu kralu
TTITLE15=Rodne udoli
TTITLE16=Kazdy den
TTITLE17=Blaznova ukolebavka
EXTD=
EXTT0=
EXTT1=
EXTT2=
EXTT3=
EXTT4=
EXTT5=
EXTT6=
EXTT7=
EXTT8=
EXTT9=
EXTT10=
EXTT11=
EXTT12=
EXTT13=
EXTT14=
EXTT15=
EXTT16=
EXTT17=
PLAYORDER=
